<svg id="Layer_1" xmlns="http://www.w3.org/2000/svg" viewBox="0 0 50 50"><style>.st0{fill:#545b64}</style><path class="st0" d="M11.05 29.43H6.18c-1.1 0-2-.9-2-2v-4.87c0-1.1.9-2 2-2h4.87c1.1 0 2 .9 2 2v4.87a2 2 0 0 1-2 2zm0-6.86H6.18v4.87h4.87v-4.87zM27.44 29.43h-4.87c-1.1 0-2-.9-2-2v-4.87c0-1.1.9-2 2-2h4.87c1.1 0 2 .9 2 2v4.87a2 2 0 0 1-2 2zm0-2v1-1zm0-4.86h-4.87v4.87h4.87v-4.87zM43.83 29.43h-4.87c-1.1 0-2-.9-2-2v-4.87c0-1.1.9-2 2-2h4.87c1.1 0 2 .9 2 2v4.87a2 2 0 0 1-2 2zm0-6.86h-4.87v4.87h4.87v-4.87z"/><path class="st0" d="M47.19 32.74H35.66c-1.09 0-1.97-.89-1.97-1.97v-3.01h-.92v3.01c0 1.09-.89 1.97-1.97 1.97H19.26c-1.09 0-1.97-.89-1.97-1.97v-3.04l-.97.01v3.03c0 1.09-.89 1.97-1.97 1.97H2.81c-1.09 0-1.97-.89-1.97-1.97V19.23c0-1.09.89-1.97 1.97-1.97h11.53c1.09 0 1.97.89 1.97 1.97V23h.97v-3.77c0-1.09.89-1.97 1.97-1.97h11.53c1.09 0 1.97.89 1.97 1.97V23h.92v-3.77c0-1.09.89-1.97 1.97-1.97h11.53c1.09 0 1.97.89 1.97 1.97v11.53c.03 1.1-.86 1.98-1.95 1.98zm-11.5-6.99v5.02l11.48-.03V19.23l-11.51.03.03 5.75h-4.92v-5.77l-11.51.03.03 5.75h-4.97v-5.77l-11.51.01.03 11.51 11.51-.03-.03-4.99 4.97-.04v5.05l11.51-.03-.03-4.98h4.92z"/></svg>