<svg id="Layer_1" xmlns="http://www.w3.org/2000/svg" viewBox="0 0 50 50"><style>.st0{fill:#545b64}</style><path class="st0" d="M18.42 35.7c-1.91 0-3.47-1.56-3.47-3.47s1.56-3.47 3.47-3.47c1.92 0 3.47 1.56 3.47 3.47s-1.55 3.47-3.47 3.47zm0-4.94c-.81 0-1.47.66-1.47 1.47s.66 1.47 1.47 1.47c.81 0 1.47-.66 1.47-1.47s-.65-1.47-1.47-1.47zM31.93 35.7c-1.91 0-3.47-1.56-3.47-3.47s1.56-3.47 3.47-3.47c1.92 0 3.47 1.56 3.47 3.47s-1.55 3.47-3.47 3.47zm0-4.94c-.81 0-1.47.66-1.47 1.47s.66 1.47 1.47 1.47c.81 0 1.47-.66 1.47-1.47s-.65-1.47-1.47-1.47z"/><path class="st0" d="M42.23 48.16h-2V32.29c0-8.2-6.55-14.38-15.23-14.38S9.77 24.1 9.77 32.29v14.83h-2V32.29c0-9.34 7.41-16.38 17.23-16.38s17.23 7.04 17.23 16.38v15.87z"/><path class="st0" d="M45.65 48.67H4.35V31.29h4.42v2H6.35v13.38h37.3V33.29h-2.42v-2h4.42z"/><path class="st0" d="M43.65 46.73V33.24l5.42 2.71v8.07l-5.42 2.71zm2-10.25v7.02l1.42-.71v-5.6l-1.42-.71zM6.35 46.73L.93 44.02v-8.07l5.42-2.71v13.49zm-3.42-3.94l1.42.71v-7.02l-1.42.71v5.6zM28.56 14.35h-2c0-.86-.7-1.56-1.56-1.56s-1.56.7-1.56 1.56h-2c0-1.96 1.6-3.56 3.56-3.56s3.56 1.6 3.56 3.56zM21.44 14.35h2v2.56h-2zM26.56 14.35h2v2.56h-2zM18.96 9.44l-1.41-1.41C19.5 6.07 22.1 5 24.87 5c2.76 0 5.36 1.08 7.32 3.03l-1.41 1.41C29.2 7.87 27.1 7 24.87 7s-4.33.87-5.91 2.44z"/><path class="st0" d="M33.72 6.51c-2.36-2.36-5.5-3.67-8.85-3.67-3.34 0-6.48 1.3-8.85 3.66l-1.41-1.41C17.35 2.35 20.99.84 24.87.84s7.52 1.51 10.26 4.25l-1.41 1.42z"/></svg>