<svg id="Layer_1" xmlns="http://www.w3.org/2000/svg" viewBox="0 0 50 50"><style>.st1{fill:none;stroke:#545b64;stroke-width:2;stroke-linejoin:round;stroke-miterlimit:10}</style><path class="st1" d="M32.26 10.68a8.995 8.995 0 0 1 8.07-5.01c3.53 0 6.59 2.03 8.06 4.99"/><path class="st1" d="M35.23 12.26a5.686 5.686 0 0 1 5.09-3.16c2.23 0 4.16 1.29 5.09 3.16M9.75 30.56c-.08-.63-.12-1.28-.12-1.94 0-8.25 6.69-14.94 14.94-14.94 7 0 12.87 4.81 14.49 11.31M39.5 28.62c0 8.25-6.69 14.94-14.94 14.94-6.05 0-11.26-3.59-13.61-8.76-.11-.24-.21-.49-.31-.74"/><path class="st1" d="M42.44 15.38s1.61.74 2.18 1.29c2.87 2.76-3.31 8.25-13.79 12.27-10.49 4.02-25.65 6.49-28.52 3.73-1.76-1.69-.12-4.4 3.82-7.18"/><circle class="st1" cx="40.59" cy="15.25" r="1.97"/></svg>